# xmcd
#
# Track frame offsets:
#	150
#	19177
#	34953
#	55188
#	73932
#	94165
#	113119
#	136883
#	154224
#	173187
#	188958
#	209193
#	228015
#	248226
#	267170
#	290888
#
# Disc length: 4109 seconds
#
# Revision: 1
# Processed by: cddbd v1.5.2PL0 Copyright (c) Steve Scherf et al.
# Submitted via: audiograbber 1.83.01
#
DISCID=f4100b10
DTITLE=Best Male Country Hits Vol 3 - N0117
DYEAR=1900
DGENRE=Karaoke
TTITLE0=Tim McGraw - Cowboy In Me, The 
TTITLE1=Toby Keith - I Love This Bar
TTITLE2=Brad Paisley - I'm Gonna Miss Her
TTITLE3=Alan Jackson - Jimmy Buffett - It's Five O'clock Somewhere
TTITLE4=Kenny Chesney - No Shoes, No Shirt, No Problems
TTITLE5=Dierks Bentley - What Was I Thinkin' 
TTITLE6=Kenny Chesney - Uncle Kracker - When The Sun Goes Down
TTITLE7=Toby Keith - Who's Your Daddy
TTITLE8=Tim McGraw - Cowboy In Me, The w/vocals
TTITLE9=Toby Keith - I Love This Bar w/vocals
TTITLE10=Brad Paisley - I'm Gonna Miss Her w/vocals
TTITLE11=Alan Jackson - Jimmy Buffett - It's Five O'clock Somewhere w/vocals
TTITLE12=Kenny Chesney - No Shoes, No Shirt, No Problems w/vocals
TTITLE13=Dierks Bentley - What Was I Thinkin' w/vocals
TTITLE14=Kenny Chesney - Uncle Kracker - When The Sun Goes Down w/vocals
TTITLE15=Toby Keith - Who's Your Daddy w/vocals
EXTD=
EXTT0=
EXTT1=
EXTT2=
EXTT3=
EXTT4=
EXTT5=
EXTT6=
EXTT7=
EXTT8=
EXTT9=
EXTT10=
EXTT11=
EXTT12=
EXTT13=
EXTT14=
EXTT15=
PLAYORDER=
